<?xml version="1.0" standalone="no"?>
<!DOCTYPE svg PUBLIC "-//W3C//DTD SVG 20010904//EN"
 "http://www.w3.org/TR/2001/REC-SVG-20010904/DTD/svg10.dtd">
<svg version="1.0" xmlns="http://www.w3.org/2000/svg"
 width="32.000000pt" height="32.000000pt" viewBox="0 0 32.000000 32.000000"
 preserveAspectRatio="xMidYMid meet">

<g transform="translate(0.000000,32.000000) scale(0.100000,-0.100000)"
fill="#000000" stroke="none">
<path d="M95 306 c-101 -44 -125 -178 -46 -257 65 -65 157 -65 222 0 124 124
-15 327 -176 257z m-19 -58 c4 -7 3 -8 -4 -4 -7 4 -12 3 -12 -3 0 -6 -8 -7
-17 -4 -17 7 -15 8 24 22 1 1 5 -4 9 -11z m203 -9 c-16 -10 -23 -4 -14 10 3 6
11 8 17 5 6 -4 5 -9 -3 -15z m-175 -168 c-2 -2 -4 5 -4 17 0 12 -4 22 -8 22
-5 0 -7 26 -6 58 4 86 6 85 14 -8 4 -47 6 -87 4 -89z m146 146 c12 -4 11 -6
-2 -6 -19 -1 -25 -20 -8 -22 6 -1 14 -2 19 -3 5 0 13 -5 18 -10 4 -5 -4 -6
-20 -2 -19 5 -26 3 -25 -6 2 -7 6 -15 9 -18 4 -3 1 -11 -7 -18 -12 -11 -14 -3
-14 50 0 35 4 58 8 52 4 -6 14 -14 22 -17z m-123 -69 c-2 -18 -4 -6 -4 27 0
33 2 48 4 33 2 -15 2 -42 0 -60z m70 0 c-2 -18 -4 -6 -4 27 0 33 2 48 4 33 2
-15 2 -42 0 -60z m-32 32 c0 -22 -3 -40 -7 -40 -5 0 -8 18 -8 40 0 22 3 40 8
40 4 0 7 -18 7 -40z m60 -79 c3 -5 1 -12 -5 -16 -5 -3 -10 1 -10 9 0 18 6 21
15 7z"/>
</g>
</svg>
