<?xml version="1.0" standalone="no"?>
<!DOCTYPE svg PUBLIC "-//W3C//DTD SVG 20010904//EN"
 "http://www.w3.org/TR/2001/REC-SVG-20010904/DTD/svg10.dtd">
<svg version="1.0" xmlns="http://www.w3.org/2000/svg"
 width="64.000000pt" height="64.000000pt" viewBox="0 0 64.000000 64.000000"
 preserveAspectRatio="xMidYMid meet">

<g transform="translate(0.000000,64.000000) scale(0.100000,-0.100000)"
fill="#000000" stroke="none">
<path d="M220 623 c-226 -79 -293 -361 -125 -528 65 -66 125 -90 225 -90 70 0
94 5 135 25 143 70 217 238 170 382 -9 29 -21 58 -26 64 -12 14 -71 5 -62 -10
4 -6 -2 -4 -12 4 -14 12 -19 12 -23 2 -3 -9 -7 -10 -17 -2 -9 8 -15 8 -20 0
-3 -5 0 -10 7 -10 9 0 9 -3 -2 -10 -12 -8 -10 -10 10 -10 l24 0 -22 -16 c-12
-8 -22 -22 -22 -31 0 -9 3 -13 7 -10 3 4 13 1 21 -6 13 -10 14 -9 7 3 -6 12
-5 13 5 3 16 -15 10 -24 -19 -26 -11 -1 -21 -5 -21 -10 0 -5 6 -7 14 -4 10 4
12 0 9 -14 -3 -10 -9 -16 -14 -13 -5 3 -9 0 -9 -5 0 -6 7 -11 15 -11 9 0 12
-6 9 -15 -4 -8 -10 -13 -14 -10 -10 6 -23 -31 -16 -44 4 -5 0 -11 -6 -14 -9
-3 -7 -11 7 -27 11 -13 14 -20 7 -16 -8 5 -18 2 -25 -8 -9 -13 -12 20 -12 154
l0 170 30 2 c17 0 40 0 52 -1 12 -1 24 3 27 8 3 5 16 7 27 4 19 -5 20 -4 9 16
-16 30 -91 82 -148 103 -59 21 -143 22 -202 1z m-75 -123 c3 -5 21 -10 38 -10
l32 0 0 -170 c-1 -93 -4 -172 -7 -175 -3 -4 -6 0 -5 7 1 42 -5 60 -22 65 -11
3 -21 13 -24 23 -4 14 -1 17 12 12 14 -5 14 -4 2 11 -9 11 -10 17 -2 17 6 0
11 9 11 20 0 11 -4 20 -9 20 -6 0 -9 9 -8 20 1 11 4 20 8 20 4 0 5 9 2 20 -6
23 -14 25 -31 8 -9 -9 -9 -5 0 14 8 17 15 22 20 15 4 -6 10 -9 13 -6 8 8 -5
40 -14 34 -4 -2 -8 3 -8 11 0 9 6 13 14 10 8 -3 11 -1 8 4 -8 13 -42 13 -47 1
-1 -5 -19 0 -38 10 l-35 20 45 -6 c32 -4 41 -2 30 5 -9 6 -10 10 -3 10 6 0 15
-4 18 -10z m125 -119 c0 -88 -8 -141 -21 -141 -5 0 -9 50 -9 110 0 91 3 110
15 110 12 0 15 -15 15 -79z m130 -31 c0 -60 -4 -110 -9 -110 -13 0 -21 53 -21
141 0 64 3 79 15 79 12 0 15 -19 15 -110z m-287 77 c4 3 7 1 7 -5 0 -17 -16
-15 -31 6 -12 15 -12 16 2 5 9 -7 19 -10 22 -6z m222 -67 c0 -64 -3 -80 -15
-80 -12 0 -15 16 -15 80 0 64 3 80 15 80 12 0 15 -16 15 -80z m206 -3 c-1 -12
-15 -9 -19 4 -3 6 1 10 8 8 6 -3 11 -8 11 -12z m-46 -107 c3 -6 -1 -7 -9 -4
-18 7 -21 14 -7 14 6 0 13 -4 16 -10z m-261 -126 c3 -8 2 -12 -4 -9 -6 3 -10
10 -10 16 0 14 7 11 14 -7z m177 -7 c-10 -9 -11 -8 -5 6 3 10 9 15 12 12 3 -3
0 -11 -7 -18z"/>
</g>
</svg>
